<?xml version="1.0" encoding="UTF-8" standalone="no"?>
<!-- Created with Inkscape (http://www.inkscape.org/) -->

<svg
   version="1.1"
   id="svg1"
   width="64"
   height="64"
   viewBox="0 0 64 64.000001"
   xmlns="http://www.w3.org/2000/svg"
   xmlns:svg="http://www.w3.org/2000/svg">
  <defs
     id="defs1" />
  <g
     id="g1">
    <g
       id="g33"
       transform="matrix(0.44962485,0,0,0.44962485,-51.096066,2.1105263)">
      <path
         id="path2"
         d="m 206.17466,132.95827 v 0 L 184.664,95.700536 163.15333,132.95827 h 43.02133"
         style="fill:#2f6394;fill-opacity:1;fill-rule:nonzero;stroke:none;stroke-width:0.133333" />
      <path
         id="path3"
         d="m 234.16933,84.731736 v 0 L 212.65866,47.473337 191.148,84.731736 h 43.02133"
         style="fill:#2f6394;fill-opacity:1;fill-rule:nonzero;stroke:none;stroke-width:0.133333" />
      <path
         id="path4"
         d="m 206.17466,43.705337 v 0 L 184.664,80.963603 163.15333,43.705337 h 43.02133"
         style="fill:#2f6394;fill-opacity:1;fill-rule:nonzero;stroke:none;stroke-width:0.133333" />
      <path
         id="path5"
         d="m 178.48133,91.932269 v 0 L 156.96533,129.186 135.45466,91.932269 h 43.02667"
         style="fill:#2f6394;fill-opacity:1;fill-rule:nonzero;stroke:none;stroke-width:0.133333" />
      <path
         id="path6"
         d="m 234.16933,91.932269 v 0 L 212.65866,129.186 191.148,91.932269 h 43.02133"
         style="fill:#2f6394;fill-opacity:1;fill-rule:nonzero;stroke:none;stroke-width:0.133333" />
      <path
         id="path7"
         d="m 178.48133,84.731736 v 0 l -21.516,-37.258399 -21.51067,37.258399 h 43.02667"
         style="fill:#2f6394;fill-opacity:1;fill-rule:nonzero;stroke:none;stroke-width:0.133333" />
      <path
         id="path8"
         d="m 205.60133,37.249337 v 0 L 184.09066,-0.00532828 162.58,37.249337 h 43.02133"
         style="fill:#ef4e1e;fill-opacity:1;fill-rule:nonzero;stroke:none;stroke-width:0.133333" />
    </g>
  </g>
</svg>
