<svg xmlns="http://www.w3.org/2000/svg">

  <symbol id="cart-add" width="24" height="24" viewBox="0 0 24 24">
    <g id="Gruppe_38" data-name="Gruppe 38">
      <g id="Gruppe_37" data-name="Gruppe 37">
        <path id="Pfad_112" data-name="Pfad 112"
          d="M20,2H4A2.074,2.074,0,0,0,2,4V7.01A2.02,2.02,0,0,0,3,8.7V20a2.149,2.149,0,0,0,2,2H19a2.149,2.149,0,0,0,2-2V8.7a2.02,2.02,0,0,0,1-1.69V4A2.074,2.074,0,0,0,20,2ZM19,20H5V9H19ZM20,7H4V4H20Z" />
      </g>
    </g>
    <path id="Pfad_3495" data-name="Pfad 3495"
      d="M4.685-7.776H7.348v1.188H4.685v3.064H3.369V-6.587H.686V-7.776H3.369V-10.6H4.685Z"
      transform="translate(7.929 21)" />
  </symbol>
  <symbol id="cart-remove">
    <g id="Gruppe_38" data-name="Gruppe 38">
      <g id="Gruppe_37" data-name="Gruppe 37">
        <path id="Pfad_112" data-name="Pfad 112"
          d="M20,2H4A2.074,2.074,0,0,0,2,4V7.01A2.02,2.02,0,0,0,3,8.7V20a2.149,2.149,0,0,0,2,2H19a2.149,2.149,0,0,0,2-2V8.7a2.02,2.02,0,0,0,1-1.69V4A2.074,2.074,0,0,0,20,2ZM19,20H5V9H19ZM20,7H4V4H20Z" />
      </g>
    </g>
    <rect id="rect1" width="7.1620002" height="1.7208859" x="8.3541174" y="12.953579" />
  </symbol>
  <symbol id="cart">
    <g id="Gruppe_38" data-name="Gruppe 38">
      <g id="Gruppe_37" data-name="Gruppe 37">
        <path id="Pfad_112" data-name="Pfad 112"
          d="M20,2H4A2.074,2.074,0,0,0,2,4V7.01A2.02,2.02,0,0,0,3,8.7V20a2.149,2.149,0,0,0,2,2H19a2.149,2.149,0,0,0,2-2V8.7a2.02,2.02,0,0,0,1-1.69V4A2.074,2.074,0,0,0,20,2ZM19,20H5V9H19ZM20,7H4V4H20Z" />
      </g>
    </g>
  </symbol>
  <symbol id="batch-add">
    <g id="Gruppe_45" data-name="Gruppe 45">
      <g id="Gruppe_44" data-name="Gruppe 44">
        <path id="Pfad_3488" data-name="Pfad 3488"
          d="M17,4V20a2.006,2.006,0,0,0,2-2V6A2.006,2.006,0,0,0,17,4Z"></path>
        <path id="Pfad_3489" data-name="Pfad 3489"
          d="M13,2H4A2.006,2.006,0,0,0,2,4V20a2.006,2.006,0,0,0,2,2h9a2.006,2.006,0,0,0,2-2V4A2.006,2.006,0,0,0,13,2Zm0,18H4V4h9Z"></path>
        <path id="Pfad_3490" data-name="Pfad 3490"
          d="M21,6V18a1.5,1.5,0,0,0,1.5-1.5v-9A1.5,1.5,0,0,0,21,6Z"></path>
      </g>
    </g>
    <path id="Pfad_3493" data-name="Pfad 3493"
      d="M4.685-7.776H7.348v1.188H4.685v3.064H3.369V-6.587H.686V-7.776H3.369V-10.6H4.685Z"
      transform="translate(4.652 19.1)"></path>
  </symbol>
  <symbol id="batch-remove">
    <g id="Gruppe_45" data-name="Gruppe 45">
      <g id="Gruppe_44" data-name="Gruppe 44">
        <path id="Pfad_3488" data-name="Pfad 3488"
          d="M17,4V20a2.006,2.006,0,0,0,2-2V6A2.006,2.006,0,0,0,17,4Z"></path>
        <path id="Pfad_3489" data-name="Pfad 3489"
          d="M13,2H4A2.006,2.006,0,0,0,2,4V20a2.006,2.006,0,0,0,2,2h9a2.006,2.006,0,0,0,2-2V4A2.006,2.006,0,0,0,13,2Zm0,18H4V4h9Z"></path>
        <path id="Pfad_3490" data-name="Pfad 3490"
          d="M21,6V18a1.5,1.5,0,0,0,1.5-1.5v-9A1.5,1.5,0,0,0,21,6Z"></path>
      </g>
    </g>
    <path id="Pfad_3494" data-name="Pfad 3494" d="M4.685-7.776H7.348v1.188H.686V-7.776h4Z"
      transform="translate(4.652 19.1)"></path>
  </symbol>

  <symbol id="revise" width="24" height="24" viewBox="0 0 24 24">
    <path id="Pfad_107" data-name="Pfad 107"
      d="M20,10A8,8,0,1,0,6,15.28V23l6-2,6,2V15.28A7.961,7.961,0,0,0,20,10ZM12,4a6,6,0,1,1-6,6A6,6,0,0,1,12,4Zm0,15L8,20.02v-3.1a7.947,7.947,0,0,0,8,0v3.1Z" />
    <path id="Pfad_6729" data-name="Pfad 6729"
      d="M13.021,6.955,12.066,6,8,10.066l4.066,4.066.955-.955-3.1-3.11Z"
      transform="translate(1.195 -0.066)" stroke-width="0.7" />
  </symbol>

  <symbol id="batch-add-all" width="24" height="24" viewBox="0 0 24 24">
    <g id="Gruppe_45" data-name="Gruppe 45">
      <g id="Gruppe_44" data-name="Gruppe 44">
        <path id="Pfad_3488" data-name="Pfad 3488"
          d="M17,4V20a2.006,2.006,0,0,0,2-2V6A2.006,2.006,0,0,0,17,4Z" />
        <path id="Pfad_3489" data-name="Pfad 3489"
          d="M13,2H4A2.006,2.006,0,0,0,2,4V20a2.006,2.006,0,0,0,2,2h9a2.006,2.006,0,0,0,2-2V4A2.006,2.006,0,0,0,13,2Zm0,18H4V4h9Z" />
        <path id="Pfad_3490" data-name="Pfad 3490"
          d="M21,6V18a1.5,1.5,0,0,0,1.5-1.5v-9A1.5,1.5,0,0,0,21,6Z" />
      </g>
    </g>
    <g id="Gruppe_900" data-name="Gruppe 900" transform="translate(-7.875 -2)">
      <g id="Gruppe_900-2" data-name="Gruppe 900" transform="translate(12.81 11.93)">
        <path id="Pfad_6733" data-name="Pfad 6733"
          d="M19,11.93,15.62,15.3l-1.687-1.687L12.81,14.74l2.81,2.818,4.505-4.505Z"
          transform="translate(-12.81 -11.93)" stroke-width="0.4" />
      </g>
    </g>
  </symbol>

  <symbol id="cone" width="24" height="24" viewBox="0 0 24 24">
    <g id="Gruppe_897" data-name="Gruppe 897" transform="translate(-1195 -833.456)">
      <!--<path
      id="Pfad_6630" data-name="Pfad 6630" d="M0,0H16V16H0Z" transform="translate(1195 833.456)"
      fill="rgba(255,255,255,0)"/>-->
      <g id="Gruppe_887" data-name="Gruppe 887" transform="translate(1196.939 833.456)">
        <path id="Polygon_1" data-name="Polygon 1" d="M2.667,0,5.333,4.364H0Z"
          transform="translate(3.394)" fill="#e75711" />
        <path id="Polygon_2" data-name="Polygon 2" d="M2.667,0,5.333,4.364H0Z"
          transform="translate(8.727 9.697) rotate(180)" fill="#00618a" />
        <path id="Polygon_3" data-name="Polygon 3" d="M2.667,0,5.333,4.364H0Z"
          transform="translate(3.394 11.636)" fill="#00618a" />
        <path id="Polygon_4" data-name="Polygon 4" d="M2.667,0,5.333,4.364H0Z"
          transform="translate(6.788 5.818)" fill="#00618a" />
        <path id="Polygon_5" data-name="Polygon 5" d="M2.667,0,5.333,4.364H0Z"
          transform="translate(0 5.818)" fill="#00618a" />
        <path id="Polygon_6" data-name="Polygon 6" d="M2.667,0,5.333,4.364H0Z"
          transform="translate(12.121 15.515) rotate(180)" fill="#00618a" />
        <path id="Polygon_7" data-name="Polygon 7" d="M2.667,0,5.333,4.364H0Z"
          transform="translate(5.333 15.515) rotate(180)" fill="#ee0000" />
      </g>
    </g>
  </symbol>

  <symbol id="cone-bw" width="24" height="24" viewBox="0 0 24 24">
    <g id="CoNE_icon" data-name="CoNE icon">
      <g>
        <path d="M3.7338,0,7.4662,6.1096H0Z"
          transform="translate(7.07)" fill-opacity="0.6"/>
        <path d="M3.7338,0,7.4662,6.1096H0Z"
          transform="translate(14.5 13.4) rotate(180)" />
        <path d="M3.7338,0,7.4662,6.1096H0Z"
          transform="translate(7.07 15.8)" />
        <path d="M3.7338,0,7.4662,6.1096H0Z"
          transform="translate(2.2 8.1)" />
        <path d="M3.7338,0,7.4662,6.1096H0Z"
          transform="translate(11.8 8.1)" />
        <path d="M3.7338,0,7.4662,6.1096H0Z"
          transform="translate(19.5 21.4) rotate(180)" />
        <path d="M3.7338,0,7.4662,6.1096H0Z"
          transform="translate(9.7 21.4) rotate(180)" />
      </g>
    </g>
  </symbol>

  <symbol id="doi" width="24" height="24" viewBox="0 0 24 24">
    <g id="DOI_logo" transform="translate(-1 -1)">
      <circle id="Ellipse_3" data-name="Ellipse 3" cx="12" cy="12" r="12" transform="translate(1 1)" />
      <path id="Pfad_3497" data-name="Pfad 3497"
        d="M15.026,36.471H12.8v-.9a3.833,3.833,0,0,1-.987.7,3.14,3.14,0,0,1-1.465.373,3.237,3.237,0,0,1-2.218-.834A3.716,3.716,0,0,1,7,32.959a3.429,3.429,0,0,1,1.188-2.737,3.52,3.52,0,0,1,2.214-.977,3.635,3.635,0,0,1,1.479.244,3.76,3.76,0,0,1,.924.65V25.374h2.223Zm-2.272-3.5a1.773,1.773,0,0,0-.414-1.221,2.03,2.03,0,0,0-1.261-.562,1.731,1.731,0,0,0-1.209.7,1.791,1.791,0,0,0-.367,1.1,1.715,1.715,0,0,0,.384,1.069,1.38,1.38,0,0,0,1.094.6,1.737,1.737,0,0,0,1.774-1.684Z"
        transform="translate(-4.872 -19.803)" fill="#fff" />
      <path id="Pfad_3498" data-name="Pfad 3498"
        d="M62.312,25.618a1.334,1.334,0,1,0,1.332,1.325,1.261,1.261,0,0,0-.389-.936,1.285,1.285,0,0,0-.944-.389Zm-5.852,3.729a3.982,3.982,0,0,0-3.176,1.284,3.617,3.617,0,0,0-.922,2.439,3.78,3.78,0,0,0,.915,2.576,4.421,4.421,0,0,0,6.216,0,3.7,3.7,0,0,0,.915-2.515,3.66,3.66,0,0,0-.922-2.5,3.83,3.83,0,0,0-3.025-1.284Zm4.67.26v7.057h2.362V29.607H61.131ZM56.389,31.5a1.462,1.462,0,0,1,1.1.479,1.588,1.588,0,0,1,.461,1.155A1.637,1.637,0,0,1,57.5,34.3a1.481,1.481,0,0,1-1.109.471,1.459,1.459,0,0,1-1.2-.578,1.687,1.687,0,0,1,0-2.12,1.459,1.459,0,0,1,1.2-.578Z"
        transform="translate(-41.732 -20.002)" fill="#fff" />
    </g>
  </symbol>

  <symbol id="orcid" width="24" height="24" viewBox="0 0 24 24">
    <g id="ORCID_Logo">
      <path
        style=" stroke:none;fill-rule:evenodd;fill:rgb(65.098041%,80.784315%,22.352941%);fill-opacity:1;"
        d="M 24 12 C 24 18.628906 18.628906 24 12 24 C 5.371094 24 0 18.628906 0 12 C 0 5.371094 5.371094 0 12 0 C 18.628906 0 24 5.371094 24 12 Z M 24 12 " />
      <path style=" stroke:none;fill-rule:evenodd;fill:rgb(100%,100%,100%);fill-opacity:1;"
        d="M 14.109375 7.226562 L 10.023438 7.226562 L 10.023438 17.652344 L 14.128906 17.652344 C 17.542969 17.652344 19.640625 15.121094 19.640625 12.441406 C 19.640625 11.214844 19.21875 9.910156 18.3125 8.914062 C 17.402344 7.910156 16.015625 7.226562 14.109375 7.226562 Z M 13.949219 15.976562 L 11.839844 15.976562 L 11.839844 8.90625 L 13.875 8.90625 C 15.242188 8.90625 16.214844 9.320312 16.84375 9.957031 C 17.476562 10.59375 17.785156 11.472656 17.785156 12.441406 C 17.785156 13.027344 17.605469 13.914062 17.039062 14.652344 C 16.480469 15.378906 15.53125 15.976562 13.949219 15.976562 Z M 17.933594 12.957031 C 17.746094 14.261719 16.8125 16.164062 13.949219 16.164062 L 11.652344 16.164062 L 13.949219 16.164062 C 16.8125 16.164062 17.746094 14.261719 17.933594 12.957031 Z M 19.292969 11.152344 C 18.800781 9.199219 17.15625 7.414062 14.109375 7.414062 L 10.210938 7.414062 L 14.109375 7.414062 C 17.15625 7.414062 18.800781 9.199219 19.292969 11.152344 Z M 19.453125 12.441406 Z M 6.273438 7.257812 L 6.273438 17.671875 L 8.089844 17.671875 L 8.089844 7.257812 Z M 7.902344 17.484375 L 6.460938 17.484375 Z M 7.179688 6.488281 C 7.8125 6.488281 8.316406 5.972656 8.316406 5.351562 C 8.316406 4.734375 7.8125 4.21875 7.179688 4.21875 C 6.554688 4.21875 6.046875 4.722656 6.046875 5.351562 C 6.046875 5.972656 6.550781 6.488281 7.179688 6.488281 Z M 7.179688 6.488281 " />
    </g>
  </symbol>

</svg>