<svg xmlns="http://www.w3.org/2000/svg">

  <symbol id="cart-add" width="24"
          height="24" viewBox="0 0 24 24">
    <g id="Gruppe_38" data-name="Gruppe 38">
      <g id="Gruppe_37" data-name="Gruppe 37">
        <path id="Pfad_112" data-name="Pfad 112"
              d="M20,2H4A2.074,2.074,0,0,0,2,4V7.01A2.02,2.02,0,0,0,3,8.7V20a2.149,2.149,0,0,0,2,2H19a2.149,2.149,0,0,0,2-2V8.7a2.02,2.02,0,0,0,1-1.69V4A2.074,2.074,0,0,0,20,2ZM19,20H5V9H19ZM20,7H4V4H20Z"
        />
      </g>
    </g>
    <path id="Pfad_3495" data-name="Pfad 3495"
          d="M4.685-7.776H7.348v1.188H4.685v3.064H3.369V-6.587H.686V-7.776H3.369V-10.6H4.685Z"
          transform="translate(7.929 21)"/>
  </symbol>
  <symbol id="cart-remove">
    <g id="Gruppe_38" data-name="Gruppe 38">
      <g id="Gruppe_37" data-name="Gruppe 37">
        <path id="Pfad_112" data-name="Pfad 112"
              d="M20,2H4A2.074,2.074,0,0,0,2,4V7.01A2.02,2.02,0,0,0,3,8.7V20a2.149,2.149,0,0,0,2,2H19a2.149,2.149,0,0,0,2-2V8.7a2.02,2.02,0,0,0,1-1.69V4A2.074,2.074,0,0,0,20,2ZM19,20H5V9H19ZM20,7H4V4H20Z"
        />
      </g>
    </g>
    <rect
      id="rect1"
      width="7.1620002"
      height="1.7208859"
      x="8.3541174"
      y="12.953579"
    />
  </symbol>
  <symbol id="cart">
    <g id="Gruppe_38" data-name="Gruppe 38">
      <g id="Gruppe_37" data-name="Gruppe 37">
        <path id="Pfad_112" data-name="Pfad 112"
              d="M20,2H4A2.074,2.074,0,0,0,2,4V7.01A2.02,2.02,0,0,0,3,8.7V20a2.149,2.149,0,0,0,2,2H19a2.149,2.149,0,0,0,2-2V8.7a2.02,2.02,0,0,0,1-1.69V4A2.074,2.074,0,0,0,20,2ZM19,20H5V9H19ZM20,7H4V4H20Z"/>
      </g>
    </g>
  </symbol>
  <symbol id="batch-add">
    <g id="Gruppe_45" data-name="Gruppe 45">
      <g id="Gruppe_44" data-name="Gruppe 44">
        <path id="Pfad_3488" data-name="Pfad 3488"
              d="M17,4V20a2.006,2.006,0,0,0,2-2V6A2.006,2.006,0,0,0,17,4Z" ></path>
        <path id="Pfad_3489" data-name="Pfad 3489"
              d="M13,2H4A2.006,2.006,0,0,0,2,4V20a2.006,2.006,0,0,0,2,2h9a2.006,2.006,0,0,0,2-2V4A2.006,2.006,0,0,0,13,2Zm0,18H4V4h9Z"></path>
        <path id="Pfad_3490" data-name="Pfad 3490"
              d="M21,6V18a1.5,1.5,0,0,0,1.5-1.5v-9A1.5,1.5,0,0,0,21,6Z" ></path>
      </g>
    </g>
    <path id="Pfad_3493" data-name="Pfad 3493"
          d="M4.685-7.776H7.348v1.188H4.685v3.064H3.369V-6.587H.686V-7.776H3.369V-10.6H4.685Z"
          transform="translate(4.652 19.1)" ></path>
  </symbol>
  <symbol id="batch-remove">
    <g id="Gruppe_45" data-name="Gruppe 45">
      <g id="Gruppe_44" data-name="Gruppe 44">
        <path id="Pfad_3488" data-name="Pfad 3488"
              d="M17,4V20a2.006,2.006,0,0,0,2-2V6A2.006,2.006,0,0,0,17,4Z" ></path>
        <path id="Pfad_3489" data-name="Pfad 3489"
              d="M13,2H4A2.006,2.006,0,0,0,2,4V20a2.006,2.006,0,0,0,2,2h9a2.006,2.006,0,0,0,2-2V4A2.006,2.006,0,0,0,13,2Zm0,18H4V4h9Z"
        ></path>
        <path id="Pfad_3490" data-name="Pfad 3490"
              d="M21,6V18a1.5,1.5,0,0,0,1.5-1.5v-9A1.5,1.5,0,0,0,21,6Z" ></path>
      </g>
    </g>
    <path id="Pfad_3494" data-name="Pfad 3494" d="M4.685-7.776H7.348v1.188H.686V-7.776h4Z"
          transform="translate(4.652 19.1)" ></path>
  </symbol>
  <symbol id="doi">
    <path
      id="Ellipse_3"
      d="M 12 0 A 12 12 0 0 0 0 12 A 12 12 0 0 0 12 24 A 12 12 0 0 0 24 12 A 12 12 0 0 0 12 0 z M 6.9335938 4.5703125 L 9.15625 4.5703125 L 9.1542969 15.667969 L 6.9277344 15.667969 L 6.9277344 14.767578 A 3.833 3.833 0 0 1 5.9414062 15.46875 A 3.14 3.14 0 0 1 4.4765625 15.841797 A 3.237 3.237 0 0 1 2.2578125 15.007812 A 3.716 3.716 0 0 1 1.1289062 12.15625 A 3.429 3.429 0 0 1 2.3164062 9.4199219 A 3.52 3.52 0 0 1 4.5292969 8.4414062 A 3.635 3.635 0 0 1 6.0097656 8.6855469 A 3.76 3.76 0 0 1 6.9335938 9.3359375 L 6.9335938 4.5703125 z M 19.578125 4.6152344 L 19.580078 4.6152344 A 1.285 1.285 0 0 1 20.523438 5.0058594 A 1.261 1.261 0 0 1 20.912109 5.9414062 A 1.334 1.334 0 1 1 19.578125 4.6152344 z M 13.728516 8.3457031 A 3.83 3.83 0 0 1 16.753906 9.6289062 A 3.66 3.66 0 0 1 17.675781 12.128906 A 3.7 3.7 0 0 1 16.761719 14.644531 A 4.421 4.421 0 0 1 10.544922 14.644531 A 3.78 3.78 0 0 1 9.6308594 12.068359 A 3.617 3.617 0 0 1 10.552734 9.6289062 A 3.982 3.982 0 0 1 13.728516 8.3457031 z M 18.398438 8.6054688 L 20.759766 8.6054688 L 20.759766 15.662109 L 18.398438 15.662109 L 18.398438 8.6054688 z M 5.2070312 10.384766 A 1.731 1.731 0 0 0 3.9980469 11.085938 A 1.791 1.791 0 0 0 3.6308594 12.185547 A 1.715 1.715 0 0 0 4.015625 13.253906 A 1.38 1.38 0 0 0 5.109375 13.853516 A 1.737 1.737 0 0 0 6.8828125 12.169922 L 6.8828125 12.167969 A 1.773 1.773 0 0 0 6.46875 10.947266 A 2.03 2.03 0 0 0 5.2070312 10.384766 z M 13.658203 10.492188 A 1.459 1.459 0 0 0 12.458984 11.070312 A 1.687 1.687 0 0 0 12.458984 13.191406 A 1.459 1.459 0 0 0 13.658203 13.769531 A 1.481 1.481 0 0 0 14.767578 13.298828 A 1.637 1.637 0 0 0 15.21875 12.132812 A 1.588 1.588 0 0 0 14.757812 10.976562 A 1.462 1.462 0 0 0 13.65625 10.498047 L 13.658203 10.492188 z " />
  </symbol>
</svg>
