<?xml version="1.0" encoding="utf-8"?>
<!-- Generator: Adobe Illustrator 28.0.0, SVG Export Plug-In . SVG Version: 6.00 Build 0)  -->
<svg version="1.1" id="Ebene_1" xmlns="http://www.w3.org/2000/svg" xmlns:xlink="http://www.w3.org/1999/xlink" x="0px" y="0px"
	 viewBox="0 0 443.8 238.7" style="enable-background:new 0 0 443.8 238.7;" xml:space="preserve">
<style type="text/css">
	.st0{fill:#E2E8E2;}
	.st1{fill:#373A37;}
	.st2{display:none;}
	.st3{display:inline;fill:none;stroke:#000000;stroke-width:0.25;}
	.st4{fill:#235B70;}
	.st5{fill:#FFD6C4;}
	.st6{fill:#006C66;}
	.st7{fill:#BEB7DE;}
	.st8{fill:#A8DBDD;}
	.st9{fill:#7CD97A;}
	.st10{fill:#F47828;}
	.st11{fill:#E42F6E;}
	.st12{fill:#7BB7C2;}
	.st13{fill:#5F97FF;}
	.st14{fill:#693585;}
	.st15{fill:#FFBA00;}
	.st16{fill:#9DBBB3;}
	.st17{fill:#1B5048;}
	.st18{fill:#007575;}
	.st19{fill:#3982A6;}
	.st20{fill:none;stroke:#E4007E;stroke-width:7;stroke-miterlimit:10;}
	.st21{fill:#FFFFFF;}
	.st22{fill-rule:evenodd;clip-rule:evenodd;}
	.st23{fill-rule:evenodd;clip-rule:evenodd;fill:#E2E8E2;}
	.st24{fill-rule:evenodd;clip-rule:evenodd;fill:#235B70;}
	.st25{fill-rule:evenodd;clip-rule:evenodd;fill:#006C66;}
	.st26{fill-rule:evenodd;clip-rule:evenodd;fill:#FFFFFF;}
	.st27{fill-rule:evenodd;clip-rule:evenodd;fill:#373A37;}
	.st28{fill:none;stroke:#373A37;stroke-width:0.25;stroke-miterlimit:10;}
	.st29{fill:none;stroke:#373A37;stroke-width:0.2514;stroke-miterlimit:10;}
	.st30{fill:none;stroke:#373A37;stroke-width:0.1826;stroke-miterlimit:10;}
	.st31{fill:none;stroke:#373A37;stroke-width:0.1967;stroke-miterlimit:10;}
</style>
<g>
	<g>
		<path class="st21" d="M39.9,119.4c0,44.1,35.9,80,80,80c44.1,0,80-35.9,80-80c0-44.1-35.9-79.9-80-79.9
			C75.8,39.4,39.9,75.3,39.9,119.4z M42.2,119.4c0-42.9,34.9-77.7,77.7-77.7c42.9,0,77.7,34.9,77.7,77.7c0,42.9-34.9,77.7-77.7,77.7
			C77,197.1,42.2,162.2,42.2,119.4"/>
		<path class="st21" d="M142.1,167.5c-1.9,6.7-2.9,10.2,0.2,17.1c0,0.3,0.3,1.1,0,1.2c-3.3-0.7-4.2-1-7.4-1.2
			c-2.9-0.5-7.7,0.3-11,0.3c-2.5,0.1-5.1,0.2-7.7,0.5c-0.8-0.4-0.2-1.3-0.1-1.9c0.3-0.9,0.3-1.4,0.4-2.4c0.4-0.4,0.9-0.2,1.4-0.4
			c1.7-0.3,3.1-1.8,3.6-3.4c0.5-1.7-0.1-3.5-0.8-5.1c-0.2-0.5-0.8-0.8-0.5-1.3c2.1-3.9,0.6-7.9-0.1-11.7c-0.7-2.7-1.9-5.7-2.3-8.6
			c0.1-0.3-0.3-1,0.4-1l0.2,0.1c2.2,2.7,8.6,8.4,11,10.3c2.4,1.9,8.6,5.5,12.6,6.4C142.3,166.7,142.2,167,142.1,167.5L142.1,167.5z
			 M112.3,174.4c0-0.4,0-0.5,0.3-0.6h1.5c1.3,0,2.9,0.5,4.2-0.8c0.7,0,0.8,0.8,0.9,1.5c0.2,0.9,0.1,1.5,0.1,2.3
			c-0.3,0.6-0.6,1.6-1.3,2c-1,0.5-2.1,0.4-3.1,0C113.4,177.8,112.3,176.4,112.3,174.4z M114.8,181.8c-0.2,1.8-2.4,3.3-3.5,3.6
			c-1.1,0.3-4.3,0.2-5.2-0.2c-0.9-0.3-3.2-4.7-2.9-7c0-1.9,0.5-4.9,1.3-5.1c0.8-0.2,2.8-0.1,2.8-0.1c0.8-0.1,1.5,0.1,2.2,0.2
			c0.5,0.2,0.2,0.9,0.3,1.2c0.2,1,0.3,2,0.9,3c0.8,1.6,2.4,2.6,3.9,3.2C115,180.9,114.8,181.4,114.8,181.8L114.8,181.8z
			 M102.2,184.8c-0.6,0.6-0.9,0.3-1.5,0.4c-1.7-0.5-2.7-1.2-3.2-3.2c-0.6-2.8-0.6-5.7,0-8.5l0.3-0.2c1.2-0.1,3.1-0.4,3.6-0.1
			c0.5,0.3-0.5,5.2-0.5,5.2c0,1,0.4,3.5,0.9,4.8C101.7,183.3,102.7,184.3,102.2,184.8z M122.7,126.6l-0.1,1.7
			c-0.1,1.5-0.9,3.3-2.3,4.1c-0.9-0.2-0.6-1.2-0.8-1.9c0.5-1.5,1.6-2.8,2.5-4.1c0.1-0.1,0.2-0.1,0.4-0.1L122.7,126.6z M135.2,113.1
			c-0.9,0.4-1.8,0.5-2.8,0c-0.3-0.3-1.1-0.6-0.7-1.1c0.7-1.2,1.9-2.1,2.7-3.3l0.3-0.2c1.5-1.8,3.9-3.3,6.1-4.7l1.4-0.6
			c0.3-0.3,1-0.9,1.3-0.3c0.1,2.6-1.1,5-3.2,6.6c-1.4,1-2,0.8-3.2,0.9l-0.6,1.1C136.2,112.1,135.7,112.7,135.2,113.1z M130.3,135.4
			c-0.4,0.2-4-1.1-3.5-0.7c-0.8-0.9,0.5-1.2-2.6-2.4l-0.8,0.1c-0.1,0.1-0.4,0.2-0.7-0.2c0-0.5,0.6-0.4,0.8-1
			c1.1-2.5,0.5-4.5,0.4-7.1l0.8-2.1c1.6-1.9,1.6-2.2,2.6-3.2c1.1-1.5,1.3-1.6,2.7-2.8c0.2-0.2,0.7-0.4,0.9-0.1
			c0.7,0.5,0.7,0.9,0.9,1.5c0.3,2.5-1.2,4.2-3,5.6c-1.3,1.1-2.5,2.9-2.2,4.6l0.1,0.1c0.6-0.5,1.3-0.8,1.6-1.4c1-2.2,3.6-3.2,5.1-5.1
			c0.6-1.1,0.2-3.1,0-4.5c0,0,1.9-0.9,1.4-0.6c0.9,0.4,0.8,1.1,1.3,1.9c0.9,2.2,0.8,4.2-0.5,6.1l-3.7,4.6
			C131.9,131,132.5,134,130.3,135.4L130.3,135.4z M146,100.3l0.3-0.3c1.2-0.5,2.2-1,3.5-1.3l1.5-0.4c0.4-0.4,1.1-0.7,1.5-0.1
			c0,2-1.5,4.4-3.7,5.3c-0.7,0.3-1.6,0.4-2.4,0.6c-0.2-0.2-0.9,0.2-1.1-0.3C145.8,102.6,146.1,101.1,146,100.3z M160.7,96.5
			c-0.1,1.4-2,2.6-3.6,3c-0.7,0.1-1.3,0.1-1.9,0.1c-0.2-0.1-0.3-0.2-0.3-0.4c0.1-0.7,0.2-1.1,0.3-1.7l0.4-0.3c1.4-0.3,3.1-0.6,4.5-1
			C160.3,96.4,160.6,96.4,160.7,96.5L160.7,96.5z M115.4,125c4.1-7.4,9.1-13.8,14.5-20.4l7.5-8.5c5.3-5.7,11.2-11.5,17.8-16.1
			c0.8-0.5,1.2-1.4,2-0.8L158,80c0.5,0.6,0.1,2.3-0.5,2.7c-0.4,0.3-0.8,0.7-1.2,1c1.3,1.3,3.1,3.7,4.6,5.2c0.7,0.7,0.5,1.4,1.6,1.9
			c0.6,0.3,0.8,0.9,0.4,1.5c-1.1,1.3-2.8,1.1-4.2,1.5c-5.1,1.1-9.3,2.6-15,5.4c-4.6,2.4-8.2,5.1-11.5,9.2c-1.3,1.6-2.7,2.7-3.7,4.6
			c-3,3.9-5.4,7.5-7.8,11.4c-0.9,1.3-1.1,1.9-2.3,3c-0.6,0.5-1.1-0.6-1.5-1c0,0-0.1-0.1-0.1-0.1c-0.1,0-0.3,0-0.4-0.1
			C116.2,126,115.2,125.8,115.4,125z M163.1,97.5c-0.2,0.2-0.4,0.4-0.6,0.3c-0.6-0.4-0.4-1-0.3-1.5c0.1-0.1,0.1-0.2,0.3-0.2
			c0.3-0.1,0.5,0.2,0.6,0.3C163.2,96.8,163.2,97.2,163.1,97.5z M94,182c-1.2,0-2-0.6-2.6-2.1c-0.6-1.8-0.7-3.4-0.4-5.3
			c0.1-0.2,0.4-0.4,0.6-0.3l1.7-0.6c0.6-0.2,1-0.3,1.6-0.2l0.3,0.3c0,1-0.3,1.7-0.3,2.6c-0.1,2.3-0.3,3,0.4,5.1
			C95,182.3,94.6,182,94,182z M89,175.7c-0.3,0.5-0.2,0.8-0.4,1.4c-0.1,0.3-0.9-0.1-1.1-0.2c-0.9-0.5-0.8-0.2-1.1-1.1
			c-0.1-0.6-0.1-1.2,0.8-1.7c0.6-0.3,1.8-0.7,2.1,0C89.5,174.5,88.9,175.1,89,175.7L89,175.7z M173,127.2c-2.1-4.9-4.5-9.1-6.2-14
			c-1.2-1.8-0.5-3.6-0.7-5.5c-0.8-2.9-2-5.2-3.2-8.1c-0.3-0.8,0.6-1.1,0.9-1.6c0.5-1.4,0.2-3.1-0.5-4.4c-0.3-0.8,0.7-1.4,0.5-2.2
			c0-1.3-1.1-2.1-2-2.8c-1.3-1.9-1.9-2.9-3.6-4.7v-0.3c0.8-0.7,1.5-2,1.5-3.1c-0.3-1.2-0.6-2.4-1.8-3.2c-1.9-1.1-3.8,0.6-5.3,1.4
			c-0.4,0.3-0.6,0.6-1.2,0.5c-0.4-0.1-0.8-0.3-1.2-0.4c-0.4,0.4-0.9,0.9-1.4,1.4l1.8,0.7c0.1,0.1,0.1,0.1,0.1,0.2c0,0,0,0.1,0,0.1
			l-4.2,3.7c0,0-7.4,7.3-7.4,7.3l-2.1,2.1l-6.6,7.6c-3.4,4-8.5,10.5-11.5,15.3c-1.6,2.2-3.2,4.6-4.6,6.9c-0.2,0.3-0.5,0.2-0.9,0.2
			c-0.3,0-0.7-0.1-1,0h0l-0.1,0c0,0,0,0,0.1,0c-1.7,0.2-2.9,0.7-4.2,1.9c-1.7,1.9-2.6,4.4-2.5,7c0,1.8,0.4,3.7,1.2,5.5
			c-0.3,1-1.1,1.9-1.8,2.7l-0.4,0.4l-0.5,0.5c-0.3,0.3-0.7,0.7-1,1l0,0l0,0c0,0.1,0,0.3,0.3,0.5l0.1,0l0.1,0
			c1.6-0.4,2.5-1.5,3.5-2.7c0,0,0.6-0.7,0.7-0.8c0.1,0,0.3,0.1,0.5,0.2c0.1,0.1,0.2,0.2,0.4,0.2v0.1l0,0.6c-3.7,3.6-6.7,5.7-10.6,8
			l-0.7,0.4l0.8,0.1c1.5,0.2,3-0.7,4.4-1.5l1.7-0.9c1.6-0.8,3-2,4.4-3.2c0,0,1.3-1,1.4-1.2c0.1,0,0.3,0.2,0.4,0.3l0.1,0.1
			c0,0,1.2,2.3,1.2,2.5c-0.3,1.1-0.4,2.2-0.4,3.2c0,2.4,0.5,4.7,1,7c0.5,2.3,1,4.6,1,6.9c0,0.1,0,0.3,0,0.5c0,0.7-0.8,1.6-1.4,1.9
			c-1.5,0.3-3.2,0.3-5.1,0.3c-2.3,0-4.7,0-6.5,0.5c-0.7,0.1-1.3,0.3-1.9,0.5c-0.7,0.2-1.3,0.4-1.9,0.5l-0.1,0l-0.1,0.1l-0.2,0.2
			c-0.2,0.1-0.5,0.3-0.5,0.6l0,0.1c0,0.2,0.1,0.4,0.2,0.5c0.1,0.1,0.3,0.2,0.5,0.2c0.6,0,1.2-0.2,1.8-0.4c0.4-0.2,0.9-0.3,1.3-0.4
			c3.8-0.6,8-0.5,10.9-0.3c1.4,0,3.7-0.1,4.5-2.1c0.3-0.8,0.4-1.6,0.4-2.3c0-0.8-0.1-1.6-0.3-2.3l-0.3-1.9c-0.2-1.2-0.4-2.4-0.7-3.5
			c-0.4-2-0.9-4.1-0.9-6.2c0-0.4,0-0.9,0.1-1.3c0-0.1,0.1-0.1,0.1-0.1c0.1,0,0.3,0.2,0.5,0.3c0.2,0.1,0.4,0.3,0.6,0.4
			c0.2,0.2,0.5,0.3,0.8,0.3c0.4,0,0.6,0.1,0.7,0.4c0.2,1.9,0.8,3.8,1.4,5.6c0.4,1.3,0.9,2.6,1.1,3.9c0.5,2.3,1,4.5,1,6.8
			c0,1.3-0.2,2.7-0.7,4c-1,1.8-3.1,1.8-5.2,1.8h-0.6l-5.1-0.3c-4.4-0.3-8.9-0.6-13.5,0.1c-0.3,0-0.7,0.1-1,0.1
			c-0.6,0.1-1.1,0.2-1.7,0c-0.2-0.2-0.4-0.5-0.4-0.8c0-0.1,0-0.2,0.1-0.3c0.8-1.8,1.2-3.5,1.2-4.9c0-1.2-0.3-2.2-0.8-3.2
			c-1.2-2.3-2.5-3.9-4.1-5c-1.8-1.8-3.5-3.6-5.2-5.5c-0.9-0.1-1.4-0.3-1.5-0.3l-0.2-0.1l-0.9,1.1c1.1,1.1,2.2,2.2,3.5,3.4
			c2,1.1,3.6,3,5,4.3c1.7,2,2.1,4.1,1.8,6.5c-0.2,2.8-2.8,4-4.5,5.9c-0.7,1.3-1.1,2.9-0.2,4.1c0.6,1.6,3.3,1.3,3.6,2.7
			c0.7,3,5.9,4.7,6.9,4.8c1,0.1,2.1,1.2,2.1,1.2c2.1,1.5,4.8,1.1,6.2,0.9c1.4-0.2,4,0.9,5.5,0.7c2.4-0.9,4.3-0.5,6.8-0.7
			c7.8,0.1,16.6-0.1,24.5,0.9c1.5-0.2,3.2,1,4.6,0.3c0.4-0.6,0.1-1.1,0-1.6c-3.8-6-4.4-12.7-2.2-19.2l1.4,0.1
			c5.1,0.6,9.8-0.1,15-3.1c2.6-1.4,4-4.8,3.9-7.2c-0.1-1.6-0.6-3.5-0.4-5.1c0.1-0.7,0.6-1.9,1.2-2.2c0.3-0.2,1.2-0.8,1.5-1.6
			c0.5-1.4-0.6-2-0.9-2.2c0.8-0.3,1.6-2,0.9-3.4c-0.5-0.5-1.1-2.6-1.1-3.3c-0.2-1-0.2-2,0.7-2.6c2.1-1.1,4-1.4,6.1-2.3
			c1.5-0.6,2.2-2.1,2.2-3.5L173,127.2L173,127.2z M172.4,132.4c-2.2,2-5.3,2.1-7.8,3.7c-1.1,1.1-0.9,2.4-0.4,3.9
			c0.9,1.8,0.6,1.6-0.7,2.1c-3,1-3,4.3-6.6,3.7c-0.2,0.1-1.1-0.4-0.6,0.2c0.4,0.5,0.6,0.2,1.3,0.3c1.3,0.1,1.8-0.5,2.7-1.1
			c1.3-1.1,1.1-1.5,2.7-2.3c0.4-0.1,1.3-0.4,1.8-0.2c0.4,0.3,0.4,0.3,0.4,0.6c-0.2,0.9-1.5,1.6-2,1.9c0.7,0.5,1.9,1.3,1.7,2
			c-0.3,0.5-0.3,0.5-0.8,0.8c-0.7,0.3-2.2,0.3-3.5-0.7c-0.2,0.1-0.4-0.4-1,0.2c1.3,1.4,3.2,1,3.4,1.3c0.3,0.3-1,1.9-1,2.3
			c-0.9,2.3,0.2,4.5-0.3,7c-0.3,1.9-0.9,2.8-2.5,4c-3.1,2.1-5.2,2.7-8.7,3.3c-9,0.6-14.7-2.5-21.2-7.3c-6.5-4.9-9-7.4-11-10.2
			c0-1.1,0.8-2,0.1-3.2c-0.6,0.2-0.5,1-0.9,1.4c-0.5,0.7-1.7,1.2-2.6,1.2c-2.7-0.9-2.8-4.1-4.5-5.9c-3.6-3.5-4.6-8.6-2.7-12.9
			c0.7-1.3,1.9-2.6,3.2-3.1c1.7-0.3,3.6-0.3,4.7,1.3c1.3,1.2,2.1,3.2,2.4,5c0.5,0.9-0.1,1.8,0.8,2.5c1.5,0.1,2.8,0.5,4.3-0.4
			c1.1,0.1,1.2,1.4,2.1,1.9l1.5,0.9c1.6,0.6,3.6,0.6,4.9-0.5c2.5-2.5,1.9-5.1,2.8-7.9c2.3-2.1,3.9-5.1,3.9-8
			c-0.1-1.8-0.8-3.6-1.9-5.4c0.2-1.1,0.8-1.9,1.1-2.8c0.3-0.2,0.7-0.2,1-0.2c2.6-0.6,5-2.9,6-5.4l0.2-0.2c3-0.2,6.7-1.3,8.5-4.4
			c0.4-1.4,1.9-0.4,2.8-0.7c1.6-0.1,3.2-1,4.4-2c0.3-0.1,0.6,0.3,0.8,0.4c0.7,2.4,2,4.6,2.7,7c0.9,1.8,1.2,3.5,0.9,5.3
			c0.4,2.8,2,5.4,3.1,8.2c1.1,3,2.9,6,4.1,9C172.7,130.4,173.2,131.4,172.4,132.4"/>
		<path class="st21" d="M159,109c0.4,0.5,0.7,1,0.4,1.5c-0.8,0.1-0.9-0.9-1.5-1.2c-1.1-0.5-2,0-3.1,0.3c-2.7,1.1-4.9,3.4-7.5,4.6
			c-0.3,0-0.6,0-0.8-0.3c0.4-0.4,1.1-0.5,1.7-0.9c2.7-1.8,5.3-4.5,8.6-5C157.7,107.9,158.5,108.2,159,109 M156.5,118.7
			c-0.4,0.6-1.1,0.1-1.7,0.2c-1.3-0.2-3.6,0.2-5,0c-0.2-0.1-0.4-0.4-0.2-0.6c0.2-0.4,0.8-0.4,1.2-0.7c1.6-1,3.3-2,5.1-2.4
			c0.3,0,0.6,0.2,0.7,0.5C156.8,116.5,156.6,117.9,156.5,118.7z M158.8,113.5c-0.2-0.6-0.2-1.7-1-1.9c-0.2,0.4,0,0.9-0.2,1.2
			c-0.2,0.3-0.6,0.6-1.1,0.5c-3.2,0.2-5.6,3.1-8.4,4.5c-0.9,0.5-2,0.8-3,1.1c-0.1,0.2-0.1,0.4,0.1,0.4c3.1,0.3,6.1,0.6,9.1,0.9
			l3.4-0.4c0.1-0.4-0.4-0.8-0.4-1.3c0.4-1.4,0.5-2.9,0.1-4.2C157.8,113.8,158.8,114.3,158.8,113.5 M160.5,128.6
			c0.1-0.2,0.2-0.3,0.4-0.3c0.2,0.1,0.3,0.2,0.3,0.5c0,0.6-0.2,1.2-0.3,1.8c-0.2,0.7-0.4,1.5-0.4,2.2c0,0.3,0,0.6,0.1,0.9
			c0.4,0.5,1.1,0.6,1.9,0.4c0,0,1.3-0.8,1.3-0.8c1.1-0.7,2.2-1.3,4.3-1.9c0.1,0,0.1,0,0.1,0c0,0,0,0.1,0,0.2c0,0.2-0.1,0.4-0.1,0.6
			c-0.1,0-1.9,0.9-1.9,0.9c-1.5,0.6-3,1.3-4.4,2.1c-0.4,0.1-0.8-0.1-1.2-0.4l-0.1-0.1c-0.5-0.6-0.7-1.4-0.7-2.2
			c0-0.6,0.1-1.3,0.3-1.9c0.1-0.6,0.3-1.2,0.3-1.9L160.5,128.6 M114.8,128c1.1,2.2-0.1,4.2,0,6.5c0.2,0.6,1.4,0.7,1.1,1.5
			c-0.3,0.2-0.7,0.3-1,0c-0.6-0.4-0.8-0.7-0.9-1.3c-0.1-2,1.4-4.3,0-6.2c-0.4-0.4-1-0.8-1.6-0.9c-1.3,0.2-1.9,1.6-2.3,2.6
			c-0.7,2.6-0.8,5.4,1.5,7.6c1.4,0.8,3,1.6,3.1,3.4c0.2,0.3,0.6,0.6,0.9,0.4c0.4,0,0.5-1.2,1.1-0.6l0.2,0.4
			c-0.1,0.5-0.3,1.3-1.1,1.3c-0.4,0.1-0.8-0.1-1.1-0.4c-0.8-0.8-0.2-2.1-1.6-2.7c-2.3-0.7-3.8-3.1-4-5.4c-0.1-2.2-0.1-4.6,1.8-6.5
			c0.7-0.6,1.7-0.9,2.6-0.6C113.9,127.2,114.5,127.6,114.8,128"/>
		<path class="st26" d="M86.5,144.8c3.1-1.4,6.5-1.3,7.9-1.1c-0.4,1.2-1.6,4.4-5.1,6.1c-3.5,1.7-6.5,1.3-7.6,1.1
			C82,149.6,83.4,146.2,86.5,144.8L86.5,144.8z M86,143.9c-4.2,1.9-5.5,6.9-5.5,7.1l-0.1,0.4l0.4,0.1c0.2,0.1,4,1.3,8.8-1
			c4.8-2.3,5.8-7.1,5.8-7.3l0.1-0.5l-0.5-0.1C94.8,142.7,90.1,142,86,143.9 M90.6,135.4c3-1.4,6.4-1.2,7.6-1.1
			c-0.4,1.2-1.7,4.2-5.2,5.9c-3.5,1.6-6.4,1.3-7.6,1.1C86,140.1,87.6,136.8,90.6,135.4z M90.2,134.5c-4.2,1.9-5.7,6.8-5.8,7
			l-0.1,0.5l0.5,0.1c0.2,0.1,4,1.2,8.8-1.1c4.8-2.3,5.8-6.9,5.9-7.1l0.1-0.5l-0.5-0.1C98.8,133.4,94.3,132.7,90.2,134.5"/>
		<path class="st26" d="M96.1,126.4c3-1.3,6.2-1.1,7.4-1c-0.9,2.5-2.8,4.5-5.2,5.6c-3.4,1.6-6.4,1.4-7.5,1.2
			C91.3,131,93,127.7,96.1,126.4z M95.7,125.5c-4.2,1.8-6,6.7-6.1,6.9l-0.2,0.5l0.5,0.1c0.2,0,4,1.1,8.8-1.1
			c4.8-2.2,5.9-6.6,5.9-6.8l0.1-0.5l-0.5-0.1C104,124.5,99.8,123.7,95.7,125.5 M101.5,117.5c3-1.3,6-1.1,7.2-0.9
			c-1,2.4-2.8,4.4-5.2,5.4c-3.4,1.5-6.3,1.4-7.5,1.2C96.5,121.9,98.4,118.8,101.5,117.5L101.5,117.5z M101.1,116.5
			c-4.2,1.8-6.3,6.6-6.4,6.8l-0.2,0.5l0.6,0.1c0.2,0,4,1,8.8-1.2c4.8-2.2,5.9-6.4,6-6.6l0.1-0.5l-0.5-0.1
			C109.3,115.6,105.2,114.8,101.1,116.5 M108.9,108.5c3-1.3,5.8-1,7-0.9c-0.4,1.1-1.8,3.7-5.3,5.2c-3.4,1.5-6.3,1.4-7.5,1.3
			C103.9,112.9,105.9,109.8,108.9,108.5z M108.6,107.6c-4.2,1.7-6.6,6.5-6.7,6.7l-0.3,0.6l0.6,0.1c0.2,0,4,0.8,8.8-1.3
			c4.9-2.1,6-6.2,6-6.4l0.1-0.5l-0.5-0.1C116.5,106.7,112.7,105.9,108.6,107.6"/>
		<path class="st26" d="M117.2,99.9c2.1-0.9,4.5-1.2,6.8-0.8c-0.5,1.1-1.9,3.6-5.3,5c-3.3,1.4-6.2,1.4-7.5,1.4
			C112,104.1,114.2,101.1,117.2,99.9z M116.8,99c-4.2,1.7-6.8,6.5-6.9,6.6l-0.3,0.6l0.7,0.1c0.2,0,4,0.7,8.8-1.3
			c4.9-2.1,6-6,6.1-6.2l0.1-0.5l-0.5-0.1C124.6,98.2,121,97.3,116.8,99"/>
		<path class="st26" d="M126,91.7c3-1.2,5.5-0.9,6.5-0.8c-0.5,1-1.9,3.4-5.4,4.8c-3.3,1.4-6.1,1.5-7.5,1.4
			C120.6,95.9,123,92.9,126,91.7z M125.6,90.8c-4.2,1.7-7.1,6.4-7.2,6.6L118,98l0.7,0.1c0.2,0,4,0.6,8.8-1.4c4.9-2,6.1-5.8,6.1-6
			l0.2-0.5l-0.5-0.1C133.2,90.1,129.8,89.2,125.6,90.8"/>
		<path class="st26" d="M135.1,84.2c2.9-1.1,5.3-0.9,6.3-0.7c-0.5,1-2,3.3-5.4,4.6c-3.3,1.3-6.1,1.5-7.4,1.4
			C129.7,88.2,132.1,85.4,135.1,84.2z M134.8,83.3c-4.2,1.6-7.4,6.3-7.5,6.5l-0.4,0.7l0.8,0.1c0.2,0,4,0.5,8.8-1.5
			c4.9-2,6.2-5.6,6.2-5.8l0.2-0.5l-0.5-0.2C142.2,82.6,139,81.7,134.8,83.3"/>
		<path class="st26" d="M144.4,77.5c2.9-1.1,5.1-0.8,6.1-0.7c-0.5,1-2,3.1-5.5,4.4c-2.3,0.9-4.8,1.4-7.4,1.5
			C138.8,81.4,141.5,78.6,144.4,77.5L144.4,77.5z M144.1,76.6c-4.2,1.6-7.7,6.2-7.8,6.4l-0.5,0.7l0.9,0.1c0.2,0,4,0.4,8.8-1.5
			c4.9-1.9,6.2-5.4,6.3-5.5l0.2-0.5l-0.5-0.2C151.3,76,148.4,75,144.1,76.6 M77,143.4c0-0.1,0-0.3,0-0.5c0.2-3.4,2.1-6.4,2.8-7.5
			c0.9,0.9,2.9,3.4,2.9,7c0,0.1,0,0.3,0,0.4c-0.2,3.9-2,6.3-2.7,7.2C79.2,149.3,77,146.6,77,143.4z M79.4,134.5
			c-0.1,0.2-3,3.9-3.3,8.5c-0.3,4.6,3.5,8.2,3.6,8.3l0.3,0.3l0.3-0.3c0.1-0.1,3.1-2.9,3.4-8.2c0.2-5.3-3.5-8.5-3.6-8.6l-0.4-0.3
			L79.4,134.5"/>
		<path class="st26" d="M82.4,133.4c0-0.8,0.1-1.6,0.3-2.4c0.7-2.7,2.2-4.8,2.9-5.6c0.7,0.8,2.3,3,2.3,6.2c0,0.4,0,0.8-0.1,1.1
			c-0.5,3.8-2.3,6.1-3.1,6.9C84,138.7,82.4,136.2,82.4,133.4z M85.2,124.3c-1.6,1.9-2.8,4.1-3.5,6.5c-0.1,0.5-0.2,1.1-0.3,1.6
			c-0.5,4.5,2.7,8.2,2.8,8.3l0.3,0.4l0.4-0.3c0.1-0.1,3.2-2.8,3.8-7.9c0.6-5.2-2.7-8.4-2.8-8.6l-0.4-0.3L85.2,124.3"/>
		<path class="st26" d="M88.5,124c0-0.5,0-0.9,0.1-1.4c0.1-0.5,0.2-1,0.4-1.4c0.7-2,1.8-3.8,3.2-5.3c1.5,2.1,2,4.7,1.5,7.2
			c-0.7,3.6-2.7,5.8-3.5,6.6C89.6,128.8,88.5,126.6,88.5,124z M91.9,114.7c-0.1,0.1-2.6,2.4-3.8,6.1c-0.2,0.5-0.3,1-0.4,1.6
			c-0.8,4.3,1.9,8.2,2,8.3l0.3,0.4l0.4-0.3c0.1-0.1,3.3-2.6,4.3-7.6c1-5.1-1.9-8.4-2.1-8.5l-0.3-0.4L91.9,114.7"/>
		<path class="st26" d="M95.2,115.5c0-0.7,0.1-1.4,0.2-2.1c0.1-0.5,0.3-0.9,0.4-1.4c0.8-1.9,2-3.6,3.5-5c0.8,1.4,1.2,2.9,1.2,4.4
			c0,0.8-0.1,1.7-0.4,2.6c-0.7,2.4-2,4.6-3.9,6.4C95.9,119.5,95.2,117.6,95.2,115.5z M99.1,105.8c-0.1,0.1-2.7,2.1-4.2,5.8
			c-0.2,0.5-0.4,1-0.5,1.5c-1,4.2,1.1,8.1,1.2,8.3l0.3,0.5l0.5-0.3c0.1-0.1,3.3-2.4,4.7-7.3c1.4-4.9-1.1-8.3-1.3-8.4l-0.3-0.4
			L99.1,105.8"/>
		<path class="st26" d="M102.4,107.7c0-1.5,0.3-3,0.9-4.3c0.9-1.8,2.2-3.5,3.8-4.7c0.3,0.6,0.8,1.9,0.8,3.5c0,1-0.2,2.2-0.7,3.4
			c-0.9,2.4-2.3,4.4-4.2,6.1C102.6,110.4,102.4,109.1,102.4,107.7z M107,97.5c-0.1,0.1-2.8,1.8-4.6,5.5c-0.2,0.5-0.4,1-0.6,1.4
			c-1.3,4.1,0.3,8.1,0.4,8.3l0.2,0.6l0.5-0.3c0.1-0.1,3.4-2.3,5.2-7c1.8-4.8-0.4-8.2-0.5-8.3l-0.3-0.4L107,97.5"/>
		<path class="st26" d="M110,101c0-1.3,0.2-2.9,0.7-4.3c0.2-0.5,0.4-0.9,0.6-1.3c1-1.8,2.4-3.3,4.1-4.4c0.2,0.5,0.4,1.4,0.4,2.6
			c0,1.5-0.4,2.9-1,4.2c-1.1,2.3-2.7,4.3-4.6,5.8C110.1,102.8,110,101.9,110,101z M115.4,89.8c-0.1,0.1-2.9,1.5-5,5.1
			c-0.2,0.4-0.5,0.9-0.6,1.4c-1.5,3.9-0.4,8.1-0.4,8.3l0.2,0.6l0.6-0.3c0.1-0.1,3.4-2.1,5.6-6.6c2.2-4.6,0.4-8.1,0.3-8.2l-0.2-0.4
			L115.4,89.8"/>
		<path class="st26" d="M118,95.4c0-1.6,0.2-4,1.2-6.2c0.2-0.5,0.4-0.9,0.7-1.2c1.6-2.5,3.5-3.7,4.4-4.2c0.1,0.4,0.2,1,0.2,1.8
			c0,1.3-0.3,3.1-1.4,5c-1.3,2.2-3,4.1-5,5.5C118,95.9,118,95.7,118,95.4L118,95.4z M124.4,82.7c-0.1,0.1-3,1.2-5.4,4.8
			c-0.2,0.4-0.5,0.8-0.7,1.3c-1.7,3.8-1.2,8.1-1.2,8.3l0.1,0.7l0.6-0.3c0.1-0.1,3.5-2,6-6.3c2.6-4.5,1.2-8,1.1-8.1l-0.2-0.5
			L124.4,82.7"/>
		<path class="st26" d="M128.1,82.4c0.2-0.4,0.5-0.8,0.7-1.1c1.8-2.4,3.8-3.5,4.7-3.9c0,0.2,0.1,0.5,0.1,0.9c0,1.3-0.3,3.5-1.9,5.8
			c-1.4,2.1-3.2,3.9-5.4,5.2C126.4,87.8,126.8,84.8,128.1,82.4z M133.8,76.2c-0.1,0-3.1,0.9-5.7,4.4c-0.3,0.4-0.6,0.8-0.8,1.3
			c-2,3.6-2,8.1-2,8.3v0.8l0.7-0.4c0.2-0.1,3.6-1.8,6.5-6c3-4.3,2-7.9,1.9-8l-0.1-0.5L133.8,76.2"/>
		<path class="st26" d="M138.3,75c2-2.4,4.1-3.3,5-3.6c0,0,0,0,0,0.1c0,1.1-0.3,3.7-2.6,6.5c-1.6,2-3.5,3.7-5.7,5
			C135.3,81.2,136.2,77.4,138.3,75z M143.6,70.3c-0.1,0-3.2,0.6-6.1,4.1c-2.9,3.5-3.6,9.2-3.7,9.4l-0.1,0.9l0.8-0.4
			c0.2-0.1,3.6-1.6,6.9-5.7c3.3-4.1,2.8-7.8,2.7-7.9l-0.1-0.5L143.6,70.3"/>
		<path class="st26" d="M51.9,119.4c0-37.5,30.5-68,68-68c11.1,0,22,2.7,31.8,7.9c-1.4,1.6-7.1,8.1-7.9,9
			c-7.5-3.5-15.6-5.3-23.9-5.3c-31.1,0-56.4,25.3-56.4,56.4c0,13.9,4.7,26.5,13.6,36.7c-0.9,2.3-1.4,4.7-1.4,7.2
			c0,2.8,0.7,6.2,2.6,9.8C61.8,160,51.9,140,51.9,119.4z M49.6,119.4c0,23.9,13,47,33.8,60.1l0.9,0.5l0.6-0.8
			c0.2-0.2,0.2-0.4,0.2-0.7c0-0.5-0.4-0.9-0.7-1.1l-1.2-1.2c-4.3-4.9-5.4-9.5-5.4-13.1c0-3.9,1.4-6.6,1.5-6.8l0.4-0.7l-0.5-0.6
			c-8.8-9.8-13.5-22.2-13.5-35.8c0-29.9,24.3-54.2,54.2-54.2c8.3,0,16.3,1.8,23.7,5.4l0.8,0.4l10.9-12.4l-1.2-0.7
			c-10.4-5.8-22.2-8.8-34.1-8.8C81.1,49.1,49.6,80.6,49.6,119.4"/>
		<path class="st26" d="M144.5,68.6c-7.7-3.7-16.1-5.7-24.7-5.7c-31.1,0-56.4,25.3-56.4,56.4c0,14.1,4.9,27,14.1,37.3l1,1.1l4.3-6.5
			l-0.2-0.3c-0.3,0-0.6-0.1-0.9-0.2c0.1-0.2,0.1-0.4,0.3-0.7c-0.3-0.4-0.7-0.8-1-1.2c-0.3,0.4-0.6,0.8-0.9,1.2c-0.8-0.9-3-3.5-3-6.7
			l0-0.3c-4-7.1-6-15-6-23.8c0-27,21.9-48.9,48.9-48.9c6.6,0,13,1.3,19,3.8c0.6-0.7,1.3-1.2,1.9-1.6c-6.6-3-13.7-4.5-20.9-4.5
			c-28.2,0-51.2,22.9-51.2,51.2c0,12.2,3.8,23,11.3,32l-1.7,2.6c-8.2-9.6-12.5-21.6-12.5-34.6c0-29.9,24.3-54.2,54.2-54.2
			c7.9,0,15.5,1.7,22.7,5c-0.3,0.6-0.6,1.3-0.9,1.9c0.6-0.4,1.2-0.6,1.6-0.7c0,0,0,0,0,0.1c0,0.8-0.2,2.4-1.1,4.3l0.3,0.1l3.1-6.8
			L144.5,68.6"/>
		<path class="st21" d="M144,57.6l-5.4,6.8c0.5,0.2,1,0.3,1.5,0.5l5.3-6.8C145,58,144.5,57.8,144,57.6"/>
		<path class="st21" d="M133.5,54.4l-3.1,7.8c0.5,0.1,1,0.2,1.5,0.3l3.1-7.8C134.5,54.6,134,54.5,133.5,54.4"/>
		<path class="st21" d="M120.9,53l-0.8,8.3c0.5,0,1,0,1.5,0l0.8-8.2C121.9,53.1,121.4,53,120.9,53"/>
		<path class="st21" d="M108.7,54l1.6,8.1c0.5-0.1,1-0.2,1.5-0.2l-1.6-8.1C109.7,53.8,109.2,53.9,108.7,54"/>
		<path class="st21" d="M96.8,57.2l3.7,7.4c0.5-0.2,0.9-0.3,1.4-0.5l-3.7-7.5C97.8,56.8,97.3,57,96.8,57.2"/>
		<path class="st21" d="M85.6,62.6l5.5,6.3c0.4-0.2,0.9-0.5,1.3-0.7l-5.6-6.4C86.4,62.1,86,62.3,85.6,62.6"/>
		<path class="st21" d="M75.4,70.2l7,4.9c0.4-0.3,0.8-0.7,1.2-1l-7-4.9C76.1,69.5,75.7,69.9,75.4,70.2"/>
		<path class="st21" d="M66.7,79.8l8,3.1c0.3-0.4,0.7-0.8,1-1.2l-8.1-3.2C67.3,79,67,79.4,66.7,79.8"/>
		<path class="st21" d="M59.9,91l8.6,1.2c0.3-0.5,0.5-0.9,0.8-1.4l-8.7-1.2C60.4,90,60.2,90.5,59.9,91"/>
		<path class="st21" d="M55.5,103.2l8.8-0.8c0.2-0.5,0.3-1,0.5-1.5l-8.9,0.8C55.8,102.2,55.7,102.7,55.5,103.2"/>
		<path class="st21" d="M53.6,116l8.5-3c0.1-0.5,0.1-1.1,0.2-1.6l-8.6,3C53.7,115,53.7,115.5,53.6,116"/>
		<path class="st21" d="M54.3,129l7.7-5.1c0-0.6-0.1-1.1-0.1-1.7l-7.8,5.1C54.1,127.9,54.2,128.4,54.3,129"/>
		<path class="st21" d="M57.6,141.7l6.3-6.9c-0.2-0.6-0.3-1.2-0.4-1.7l-6.4,7C57.2,140.6,57.4,141.1,57.6,141.7"/>
		<path class="st21" d="M63.4,153.8l4.4-8.4c-0.3-0.6-0.5-1.1-0.8-1.7l-4.5,8.6C62.8,152.8,63.1,153.3,63.4,153.8"/>
		<path class="st21" d="M71,163.9l2.4-9.7c-0.4-0.5-0.8-1-1.2-1.6l-2.4,9.9C70.2,163,70.6,163.4,71,163.9"/>
		<path class="st21" d="M142.9,76.4l0.6,0.4c0.2-0.1,0.4-0.2,0.5-0.2l0.6-0.2c-0.5-0.3-0.9-0.6-1.3-1
			C143.3,75.7,143.1,76,142.9,76.4"/>
	</g>
	<g>
		<path class="st21" d="M221.1,70.5V39.4h9.1l7.1,22.1l7.2-22.1h9.1v31.1h-6.3V46.7l-7.5,23.8h-4.9l-7.4-23.6v23.6H221.1z"/>
		<path class="st21" d="M258.2,70.5l11.1-31.1h6.6l11.1,31.1h-6.2l-2.5-7.2h-11.2l-2.6,7.2H258.2z M268.5,57.8h8.2l-4.1-12.3
			L268.5,57.8z"/>
		<path class="st21" d="M290.4,70.5l10.3-15.8l-10-15.3h7.8l6.2,10.1l6.1-10.1h6.7l-9.6,14.5l10.9,16.6H311l-7-11.2l-6.9,11.2H290.4
			z"/>
		<path class="st21" d="M221.1,113.4V82.4h11.4c2.3,0,4.3,0.4,6.1,1.2c1.8,0.8,3.2,1.9,4.2,3.4c1,1.5,1.6,3.4,1.6,5.6
			c0,2.1-0.5,3.8-1.4,5.3c-0.9,1.5-2.2,2.6-3.9,3.4c-1.7,0.8-3.6,1.2-5.8,1.2h-5.9v11.1H221.1z M227.4,97.5h5.8
			c1.6,0,2.9-0.5,3.9-1.5c1-1,1.5-2.3,1.5-3.7c0-1.5-0.5-2.8-1.6-3.7c-1.1-0.9-2.3-1.4-3.9-1.4h-5.7V97.5z"/>
		<path class="st21" d="M249.2,113.4V82.4h6.3v25.7H269v5.3H249.2z"/>
		<path class="st21" d="M272.3,113.4l11.1-31.1h6.6l11.1,31.1h-6.2l-2.5-7.2h-11.2l-2.6,7.2H272.3z M282.6,100.8h8.2l-4.1-12.3
			L282.6,100.8z"/>
		<path class="st21" d="M305.8,113.4V82.4h6.2l14.2,20.6V82.4h6.3v31.1h-5.6l-14.8-21.4v21.4H305.8z"/>
		<path class="st21" d="M352,113.8c-2.9,0-5.4-0.7-7.5-2c-2.1-1.3-3.7-3.2-4.9-5.7c-1.1-2.4-1.7-5.3-1.7-8.5c0-3.3,0.6-6.1,1.7-8.4
			c1.1-2.3,2.7-4.1,4.9-5.4c2.1-1.3,4.6-1.9,7.5-1.9c2.3,0,4.4,0.5,6.2,1.4c1.8,0.9,3.3,2.2,4.4,3.8c1.1,1.6,1.8,3.4,2,5.5h-6.6
			c-0.2-1.1-0.6-2-1.1-2.9c-0.5-0.8-1.2-1.5-2.1-2c-0.9-0.5-1.9-0.7-3.1-0.7c-1.4,0-2.7,0.4-3.7,1.1c-1,0.7-1.8,1.8-2.4,3.4
			c-0.6,1.6-0.8,3.6-0.8,6.2c0,3.9,0.6,6.7,1.9,8.4c1.2,1.7,2.9,2.6,5.1,2.6c1.2,0,2.2-0.3,3.1-0.8c0.9-0.6,1.6-1.3,2.1-2.2
			c0.5-0.9,0.9-1.9,1.1-3h6.6c-0.2,1.5-0.5,2.9-1.1,4.2c-0.5,1.3-1.3,2.5-2.3,3.6c-1,1-2.2,1.9-3.8,2.5
			C356.1,113.5,354.2,113.8,352,113.8z"/>
		<path class="st21" d="M370.2,113.4V82.4h6.5v14.2l11.3-14.2h7.2l-9.4,12l10.6,19h-6.8L381.3,99l-4.6,5.5v8.9H370.2z"/>
		<path class="st21" d="M221.1,156.4v-31.1c0.2,0,0.6,0,1.3,0s1.6,0,2.6,0c1,0,2,0,2.9,0c1,0,1.8,0,2.5,0c3.8,0.1,6.8,0.8,9.2,2
			c2.4,1.3,4.1,3,5.2,5.3c1.1,2.3,1.7,4.9,1.7,8c0,3.2-0.6,6-1.8,8.3c-1.2,2.3-3,4.1-5.4,5.4c-2.4,1.3-5.5,1.9-9.2,1.9H221.1z
			 M227.4,151.3h2.9c1.8,0,3.4-0.3,4.8-1c1.5-0.7,2.6-1.8,3.5-3.4c0.9-1.6,1.3-3.6,1.3-6.2c0-2.4-0.4-4.4-1.2-5.9
			c-0.8-1.5-1.9-2.6-3.3-3.3c-1.4-0.7-3.1-1.1-5.1-1.1h-3V151.3z"/>
		<path class="st21" d="M252.1,156.4v-31.1h6.2v31.1H252.1z"/>
		<path class="st21" d="M277.8,156.8c-2.8,0-5.3-0.6-7.4-1.9c-2.1-1.3-3.7-3.1-4.9-5.5c-1.1-2.4-1.7-5.2-1.7-8.4
			c0-3.3,0.6-6.1,1.8-8.5c1.2-2.4,2.9-4.2,5-5.6c2.1-1.3,4.7-2,7.5-2c1.8,0,3.5,0.3,5,0.9c1.5,0.6,2.8,1.4,4,2.4
			c1.1,1,2,2.2,2.6,3.4c0.6,1.3,1,2.6,1,4h-6.6c-0.2-1-0.6-1.9-1.1-2.7c-0.6-0.8-1.3-1.5-2.1-2c-0.9-0.5-1.9-0.7-3-0.7
			c-1.4,0-2.6,0.4-3.7,1.1c-1.1,0.7-2,1.8-2.6,3.4c-0.6,1.5-1,3.6-1,6.1c0,2,0.2,3.8,0.6,5.1c0.4,1.4,1,2.4,1.7,3.2
			c0.7,0.8,1.5,1.4,2.4,1.7c0.9,0.3,1.9,0.5,2.8,0.5c0.9,0,1.7-0.2,2.5-0.5c0.7-0.3,1.3-0.7,1.9-1.2c0.5-0.5,0.9-1,1.2-1.6
			c0.3-0.6,0.5-1.1,0.6-1.7l0.2-1.9h-6.4v-4.3l13,0.1v16.2h-4.3v-4.1c-0.5,0.7-1.2,1.4-2,2.1c-0.8,0.7-1.7,1.3-2.9,1.7
			C280.9,156.6,279.5,156.8,277.8,156.8z"/>
		<path class="st21" d="M297.9,156.4v-31.1h6.2v31.1H297.9z"/>
		<path class="st21" d="M317.8,156.4v-25.5h-9.4v-5.6h24.8v5.6h-9.2v25.5H317.8z"/>
		<path class="st21" d="M331.5,156.4l11.1-31.1h6.6l11.1,31.1h-6.2l-2.5-7.2h-11.2l-2.6,7.2H331.5z M341.8,143.7h8.2l-4.1-12.3
			L341.8,143.7z"/>
		<path class="st21" d="M365,156.4v-31.1h6.3v25.7h13.5v5.3H365z"/>
		<path class="st21" d="M221.1,199.3v-31.1h6.3V194h13.5v5.3H221.1z"/>
		<path class="st21" d="M245.9,199.3v-31.1h6.2v31.1H245.9z"/>
		<path class="st21" d="M259.1,199.3v-31.1h11.3c4.1,0,7.1,0.7,9.1,2.1c2,1.4,3,3.4,3,6c0,1.5-0.4,2.9-1.2,4c-0.8,1.1-2.2,2.1-4.2,3
			c1.3,0.3,2.4,0.8,3.2,1.3c0.8,0.6,1.4,1.2,1.8,1.9c0.4,0.7,0.7,1.4,0.9,2.1c0.2,0.7,0.2,1.5,0.2,2.2c0,2.9-1,5-2.9,6.4
			c-1.9,1.4-5,2.1-9.3,2.1H259.1z M265.4,181.1h6c0.6,0,1.3-0.1,1.9-0.2c0.6-0.2,1.1-0.4,1.6-0.7c0.5-0.3,0.8-0.7,1.1-1.2
			c0.3-0.5,0.4-1.1,0.4-1.8c0-1.3-0.5-2.4-1.5-3.1s-2.3-1-3.9-1h-5.6V181.1z M265.4,194.5h5.6c1.9,0,3.3-0.4,4.3-1.1
			c1-0.8,1.5-1.8,1.5-3c0-0.9-0.2-1.7-0.7-2.3c-0.5-0.6-1.1-1.1-1.9-1.4c-0.8-0.3-1.7-0.5-2.8-0.5h-6V194.5z"/>
		<path class="st21" d="M289.1,199.3v-31.1h13.1c2.5,0,4.5,0.4,6.1,1.2c1.6,0.8,2.7,1.9,3.5,3.3c0.7,1.4,1.1,3,1.1,4.8
			c0,1.6-0.3,3-0.8,4.1c-0.5,1.1-1.2,2.1-2,2.8c-0.8,0.7-1.7,1.4-2.7,1.8l5.8,13h-6.5l-5-12h-6.3v12H289.1z M295.4,182.5h5.7
			c1.7,0,3-0.5,4-1.4c1-0.9,1.5-2.1,1.5-3.5c0-1.4-0.5-2.6-1.4-3.4c-0.9-0.8-2.1-1.2-3.6-1.2h-6.2V182.5z"/>
		<path class="st21" d="M317,199.3l11.1-31.1h6.6l11.1,31.1h-6.2l-2.5-7.2h-11.2l-2.6,7.2H317z M327.3,186.7h8.2l-4.1-12.3
			L327.3,186.7z"/>
		<path class="st21" d="M350.5,199.3v-31.1h13.1c2.5,0,4.5,0.4,6.1,1.2c1.6,0.8,2.7,1.9,3.5,3.3c0.7,1.4,1.1,3,1.1,4.8
			c0,1.6-0.3,3-0.8,4.1c-0.5,1.1-1.2,2.1-2,2.8c-0.8,0.7-1.7,1.4-2.7,1.8l5.8,13h-6.5l-5-12h-6.3v12H350.5z M356.8,182.5h5.7
			c1.7,0,3-0.5,4-1.4c1-0.9,1.5-2.1,1.5-3.5c0-1.4-0.5-2.6-1.4-3.4c-0.9-0.8-2.1-1.2-3.6-1.2h-6.2V182.5z"/>
		<path class="st21" d="M386.8,199.3v-13.1l-10.8-18h6.8l7.2,12.6l7.1-12.6h6.9l-10.8,18v13.1H386.8z"/>
	</g>
</g>
</svg>
